<svg width="16" height="16" viewBox="0 0 16 16" fill="none" xmlns="http://www.w3.org/2000/svg">
<path d="M5.33334 4.09493L5.33334 2.9806C5.33334 2.20407 5.33334 1.81581 5.56628 1.57457C5.79923 1.33333 6.17414 1.33333 6.92398 1.33333L9.07603 1.33333C9.82586 1.33333 10.2008 1.33333 10.4337 1.57457C10.6667 1.81581 10.6667 2.20407 10.6667 2.9806V4.09493" stroke="#131313" stroke-width="1.5"/>
<path d="M9.33333 7.47681V10.8101" stroke="#131313" stroke-width="1.5" stroke-linecap="round"/>
<path d="M6.66667 7.47681V10.8101" stroke="#131313" stroke-width="1.5" stroke-linecap="round"/>
<path d="M4.00658 10.34L3.34724 4.37029L12.6528 4.37029L11.9935 10.34C11.9199 11.0062 11.8897 11.2629 11.8365 11.4713C11.5103 12.7476 10.4461 13.7007 9.14178 13.8848C8.92879 13.9148 8.67032 13.9167 8.00004 13.9167C7.32976 13.9167 7.07129 13.9148 6.85829 13.8848C5.55397 13.7007 4.48974 12.7476 4.16361 11.4713C4.11035 11.2629 4.08016 11.0062 4.00658 10.34Z" stroke="#131313" stroke-width="1.5"/>
<path d="M2 4.08134H14" stroke="#131313" stroke-width="1.5" stroke-linecap="round"/>
</svg>
