<svg width="16" height="16" viewBox="0 0 16 16" fill="none" xmlns="http://www.w3.org/2000/svg">
<path d="M4.16661 1.00065H5.79157C6.98815 1.00065 7.95818 1.97067 7.95818 3.16726V4.79222C7.95818 5.98881 6.98815 6.95884 5.79157 6.95884H4.16661C2.97003 6.95884 2 5.98881 2 4.79222V3.16726C2 1.97067 2.97003 1.00065 4.16661 1.00065Z" fill="#131313"/>
<path d="M4.16661 8.04227H5.79157C6.98815 8.04227 7.95818 9.0123 7.95818 10.2089V11.8338C7.95818 13.0304 6.98815 14.0005 5.79157 14.0005H4.16661C2.97003 14.0005 2 13.0304 2 11.8338V10.2089C2 9.0123 2.97003 8.04227 4.16661 8.04227Z" fill="#131313"/>
<path d="M14.0751 11.3605L12.8331 12.6008V2.40039L14.0751 3.64077C14.2868 3.85227 14.6298 3.85215 14.8413 3.64049C15.0528 3.42884 15.0527 3.08582 14.841 2.87432L13.4398 1.47523C12.8053 0.841591 11.7776 0.841591 11.1432 1.47523L9.74191 2.87432C9.53026 3.08582 9.53013 3.42884 9.74163 3.64049C9.95313 3.85215 10.2961 3.85227 10.5078 3.64077L11.7498 2.40039V12.6008L10.5078 11.3605C10.296 11.149 9.95285 11.1492 9.74135 11.361C9.52985 11.5728 9.5301 11.9159 9.74188 12.1274L11.1431 13.5265C11.7783 14.1584 12.8046 14.1584 13.4397 13.5265L14.841 12.1274C15.0528 11.9159 15.053 11.5728 14.8415 11.361C14.6301 11.1492 14.2869 11.149 14.0751 11.3605Z" fill="#131313"/>
</svg>
