<svg width="24" height="24" viewBox="0 0 24 24" fill="none" xmlns="http://www.w3.org/2000/svg">
<path d="M20.3499 8.92304L19.9837 8.71931C19.9268 8.68767 19.8989 8.6718 19.8714 8.65534C19.5983 8.49176 19.3681 8.26574 19.2002 7.99534C19.1833 7.96813 19.1674 7.9396 19.1348 7.8832C19.1022 7.82688 19.0858 7.79834 19.0706 7.77009C18.92 7.48877 18.8385 7.17526 18.8336 6.85617C18.8331 6.82409 18.8332 6.79131 18.8343 6.72615L18.8415 6.30089C18.8529 5.62036 18.8586 5.27904 18.763 4.97273C18.6781 4.70064 18.5359 4.45003 18.3462 4.23736C18.1316 3.99696 17.8347 3.82545 17.2402 3.48287L16.7464 3.19831C16.1536 2.85669 15.857 2.68582 15.5423 2.62068C15.2639 2.56305 14.9765 2.56572 14.6991 2.628C14.3859 2.69829 14.0931 2.87362 13.5079 3.22407L13.5045 3.22566L13.1507 3.43752C13.0948 3.47102 13.0664 3.4879 13.0384 3.50349C12.7601 3.65821 12.4495 3.74376 12.1312 3.75398C12.0992 3.75501 12.0665 3.75501 12.0013 3.75501C11.9365 3.75501 11.9024 3.75501 11.8704 3.75398C11.5515 3.74372 11.2402 3.6577 10.9615 3.50234C10.9334 3.48669 10.9056 3.46966 10.8496 3.43601L10.4935 3.22224C9.90421 2.86847 9.60913 2.69132 9.29426 2.62068C9.01569 2.55817 8.72736 2.55644 8.44789 2.61482C8.13234 2.68072 7.83575 2.85286 7.24257 3.19714L7.23993 3.19831L6.75227 3.48135L6.74687 3.48465C6.15903 3.82582 5.8644 3.99682 5.65168 4.23625C5.46292 4.44871 5.32183 4.69892 5.23738 4.97028C5.14193 5.27702 5.14701 5.61907 5.15852 6.3028L5.16566 6.72746C5.16674 6.79177 5.16862 6.82373 5.16815 6.85535C5.16342 7.1751 5.08084 7.48925 4.92973 7.77107C4.91478 7.79894 4.89868 7.82681 4.86653 7.88248C4.83434 7.93819 4.81876 7.9659 4.80207 7.99278C4.63335 8.26463 4.40212 8.49197 4.12732 8.65583C4.10013 8.67204 4.07149 8.68763 4.0152 8.71882L3.65363 8.91919C3.05207 9.25256 2.75135 9.41939 2.53254 9.6568C2.33897 9.86683 2.19274 10.116 2.10347 10.3873C2.00257 10.694 2.00266 11.0379 2.00422 11.7257L2.0055 12.2878C2.00705 12.971 2.00918 13.3123 2.1103 13.6169C2.19977 13.8864 2.34493 14.1341 2.53742 14.3428C2.755 14.5788 3.05272 14.7446 3.64973 15.0767L4.00807 15.2761C4.06905 15.31 4.09974 15.3268 4.12915 15.3445C4.40146 15.5084 4.63088 15.7351 4.79817 16.0054C4.81624 16.0346 4.83359 16.065 4.86828 16.1256C4.90255 16.1854 4.92007 16.2154 4.93592 16.2454C5.08259 16.523 5.16112 16.8316 5.16648 17.1456C5.16706 17.1795 5.16656 17.2138 5.1654 17.2828L5.15852 17.6903C5.14693 18.3764 5.14189 18.7198 5.23791 19.0274C5.32285 19.2995 5.46483 19.5501 5.65461 19.7628C5.86914 20.0032 6.16654 20.1746 6.76106 20.5172L7.25476 20.8017C7.84761 21.1433 8.14393 21.314 8.45867 21.3791C8.73712 21.4367 9.02463 21.4345 9.30207 21.3722C9.61565 21.3018 9.90947 21.1259 10.4964 20.7744L10.8502 20.5626C10.9062 20.5291 10.9346 20.5122 10.9626 20.4967C11.2409 20.3419 11.5512 20.2559 11.8695 20.2457C11.9015 20.2447 11.9341 20.2447 11.9994 20.2447C12.0648 20.2447 12.0974 20.2447 12.1295 20.2457C12.4484 20.256 12.7607 20.3423 13.0394 20.4976C13.0639 20.5113 13.0885 20.5261 13.1316 20.552L13.5078 20.7778C14.0971 21.1316 14.3916 21.3082 14.7065 21.3789C14.985 21.4414 15.2736 21.4439 15.553 21.3856C15.8685 21.3197 16.1657 21.1472 16.7586 20.8031L17.2535 20.5158C17.8418 20.1744 18.1367 20.0032 18.3495 19.7637C18.5383 19.5513 18.6795 19.3012 18.764 19.0298C18.8587 18.7253 18.853 18.3859 18.8417 17.712L18.8343 17.2725C18.8332 17.2082 18.8331 17.1762 18.8336 17.1446C18.8383 16.8249 18.9195 16.5105 19.0706 16.2287C19.0855 16.2008 19.1018 16.1728 19.1338 16.1173C19.166 16.0616 19.1827 16.0338 19.1993 16.0069C19.3681 15.7351 19.5995 15.5075 19.8743 15.3437C19.9012 15.3276 19.9288 15.3123 19.9838 15.2819L19.9857 15.281L20.3472 15.0806C20.9488 14.7473 21.2501 14.5803 21.4689 14.3428C21.6625 14.1328 21.8085 13.884 21.8978 13.6127C21.9981 13.3078 21.9973 12.9659 21.9958 12.2862L21.9945 11.712C21.9929 11.0288 21.9921 10.6875 21.8909 10.3829C21.8015 10.1134 21.6555 9.86572 21.463 9.65696C21.2456 9.42122 20.9475 9.25536 20.3517 8.92389L20.3499 8.92304Z" stroke="#131313" stroke-width="2" stroke-linecap="round" stroke-linejoin="round"/>
<path d="M8.00031 12.0001C8.00031 14.2092 9.79118 16.0001 12.0003 16.0001C14.2095 16.0001 16.0003 14.2092 16.0003 12.0001C16.0003 9.79093 14.2095 8.00007 12.0003 8.00007C9.79118 8.00007 8.00031 9.79093 8.00031 12.0001Z" stroke="#131313" stroke-width="2" stroke-linecap="round" stroke-linejoin="round"/>
</svg>
